<?xml version="1.0" standalone="no"?>
<!DOCTYPE svg PUBLIC "-//W3C//DTD SVG 1.1//EN" "http://www.w3.org/Graphics/SVG/1.1/DTD/svg11.dtd" >
<svg xmlns="http://www.w3.org/2000/svg" xmlns:xlink="http://www.w3.org/1999/xlink" version="1.1">
<metadata>
Created by FontForge 20170731 at Tue Jul 31 18:20:54 2001
 By Aleksey,,,
copyright(c)1999 Ben Weiner
</metadata>
<defs>
<font id="Acknowledgement" horiz-adv-x="1003" >
  <font-face 
    font-family="Acknowledgement"
    font-weight="700"
    font-stretch="normal"
    units-per-em="1000"
    panose-1="0 0 7 0 0 0 0 0 0 0"
    ascent="800"
    descent="-200"
    x-height="618"
    cap-height="619"
    bbox="-60 -211 1961 818"
    underline-thickness="20"
    underline-position="-163"
    unicode-range="U+0020-F002"
  />
<missing-glyph horiz-adv-x="500" 
d="M63 0v800h375v-800h-375zM125 63h250v675h-250v-675z" />
    <glyph glyph-name=".notdef" horiz-adv-x="500" 
d="M63 0v800h375v-800h-375zM125 63h250v675h-250v-675z" />
    <glyph glyph-name="glyph1" horiz-adv-x="0" 
 />
    <glyph glyph-name="nonmarkingreturn" horiz-adv-x="500" 
 />
    <glyph glyph-name="space" unicode=" " horiz-adv-x="500" 
 />
    <glyph glyph-name="exclam" unicode="!" horiz-adv-x="364" 
d="M319 636l-27 -413h-205l-27 413h259zM194 195q52 0 91 -31.5t39 -76.5t-39 -74t-91 -29t-89 28q-40 30 -40 75t38.5 76.5t90.5 31.5z" />
    <glyph glyph-name="quotedbl" unicode="&#x22;" horiz-adv-x="414" 
d="M69 493l-14 214h141l-15 -214h-112zM249 493l-14 214h141l-15 -214h-112z" />
    <glyph glyph-name="numbersign" unicode="#" horiz-adv-x="574" 
d="M252 481l70 14v99l-70 -14v-99zM75 443l71 15v99l-71 -15v76l71 15v72l106 22v-71l70 14v72l106 22v-71l71 15v-76l-71 -15v-99l71 15v-76l-71 -15v-72l-106 -22v71l-70 -14v-72l-106 -22v71l-71 -15v76z" />
    <glyph glyph-name="dollar" unicode="$" horiz-adv-x="782" 
d="M310 -112v91q-95 10 -152 41v-28h-138v254h138v-36q0 -72 152 -97v120q-272 41 -272 205q0 96 89 152q71 44 183 58v106h162v-109q84 -17 145 -60v50h138v-245h-138v37q0 61 -145 87v-110q140 -17 203 -56q87 -53 87 -169q0 -180 -290 -202v-89h-162zM310 518
q-67 -9 -67 -58q0 -25 67 -36v94zM472 112q83 15 83 52q0 28 -23 40q-18 9 -60 14v-106z" />
    <glyph glyph-name="percent" unicode="%" horiz-adv-x="1200" 
d="M265 324q36 0 56 29q18 26 18 63q0 113 -74 113q-41 0 -63 -36q-17 -29 -17 -74q0 -38 20 -65q22 -30 60 -30zM264 237q-90 0 -155 50q-69 53 -69 135t70 137q66 51 154 51t153 -52q67 -55 67 -136q0 -86 -68 -137q-62 -48 -152 -48zM918 54q41 0 64 33q21 30 21 71
q0 129 -85 129q-47 0 -71 -41q-20 -34 -20 -85q0 -42 24 -73q25 -34 67 -34zM918 -37q-100 0 -171 54q-76 58 -76 149q0 90 77 150q73 56 170 56q96 0 167 -57q75 -60 75 -149q0 -95 -75 -152q-68 -51 -167 -51zM709 639h210l-502 -715h-210z" />
    <glyph glyph-name="ampersand" unicode="&#x26;" horiz-adv-x="901" 
d="M765 251q-7 -72 -66 -130q19 -7 53 -7h105v-115h-229l-58 41q-102 -63 -206 -63q-321 0 -321 190q0 62 41 113q35 45 92 72q-44 48 -44 115q0 84 61.5 129.5t174.5 45.5q87 0 148 -45q68 -50 68 -133q0 -89 -121 -141l148 -119q19 18 27 47h-64v115h263v-115h-72z
M356 524q-55 0 -55 -48q0 -26 18 -44q3 -3 39 -29q31 9 55 31q19 18 19 26q-3 64 -76 64zM234 167q0 -25 27 -44q36 -26 107 -26q48 0 87 22l4 2l-171 140q-54 -27 -54 -94z" />
    <glyph glyph-name="quotesingle" unicode="'" horiz-adv-x="286" 
d="M87 493l-14 214h141l-15 -214h-112z" />
    <glyph glyph-name="parenleft" unicode="(" horiz-adv-x="514" 
d="M229 300q1 246 254 246h4v143q-179 1 -308 -90q-152 -107 -152 -299q0 -227 126 -320q107 -80 334 -80v143q-143 -1 -199 53q-60 56 -59 204z" />
    <glyph glyph-name="parenright" unicode=")" horiz-adv-x="514" 
d="M285 300q-1 246 -254 246h-4v143q179 1 308 -90q152 -107 152 -299q0 -227 -126 -320q-107 -80 -334 -80v143q143 -1 199 53q60 56 59 204z" />
    <glyph glyph-name="asterisk" unicode="*" horiz-adv-x="468" 
d="M187 658l-16 75h130l-19 -74l81 51l67 -84l-100 -33l100 -34l-67 -84l-83 52l16 -75h-130l19 74l-81 -51l-66 84l100 34l-100 33l66 84z" />
    <glyph glyph-name="plus" unicode="+" horiz-adv-x="608" 
d="M374 487v-115h154v-109h-154v-116h-138v116h-156v109h156v115h138z" />
    <glyph glyph-name="comma" unicode="," horiz-adv-x="411" 
d="M173 -25q-49 7 -81.5 35t-32.5 68q0 46 41.5 78.5t98.5 32.5t104 -31q49 -34 49 -80q-1 -58 -30 -98q-33 -47 -140 -102l-73 67q25 12 64 30z" />
    <glyph glyph-name="hyphen" unicode="-" horiz-adv-x="599" 
d="M434 277h-268v81l268 1v-82z" />
    <glyph glyph-name="hyphen" unicode="&#x2010;" horiz-adv-x="599" 
d="M434 277h-268v81l268 1v-82z" />
    <glyph glyph-name="period" unicode="." horiz-adv-x="401" 
d="M200 189q57 0 99 -30.5t42 -74.5q0 -43 -42 -71t-99 -28t-97 27q-43 29 -43 72q0 44 42 74.5t98 30.5z" />
    <glyph glyph-name="slash" unicode="/" horiz-adv-x="512" 
d="M285 689h209l-267 -789h-209z" />
    <glyph glyph-name="zero" unicode="0" horiz-adv-x="820" 
d="M415 109q73 0 117 59q38 53 38 127q0 225 -155 225q-85 0 -128 -72q-37 -61 -37 -152q0 -74 44 -129q48 -58 121 -58zM415 -17q-156 0 -271 83q-128 92 -128 241q0 144 125 240q117 90 274 90q155 0 269 -91q121 -96 121 -239q0 -151 -121 -242q-110 -82 -269 -82z" />
    <glyph glyph-name="one" unicode="1" horiz-adv-x="720" 
d="M573 0h-419v125h107v281h-113v112q60 5 85 27.5t30 73.5h204l-1 -494h107v-125z" />
    <glyph glyph-name="two" unicode="2" horiz-adv-x="820" 
d="M30 0v105q0 154 345 234q93 22 117 36q29 17 29 57q0 36 -17 52q-28 27 -114 27q-120 0 -119 -104h-224q0 117 124 180q98 50 225 50q361 0 361 -211q0 -89 -61 -137q-45 -37 -171 -78q-69 -17 -191 -51q-55 -16 -69 -36h387v117h138v-241h-760z" />
    <glyph glyph-name="three" unicode="3" horiz-adv-x="819" 
d="M394 -23q-137 0 -236 48q-126 62 -126 185l226 1q0 -47 41.5 -77t108.5 -31q145 -1 145 89q0 43 -60 54q-31 5 -149 6v142h8q98 0 131 7q49 11 49 49q0 70 -126 69q-123 0 -123 -97h-219q0 114 113 171q89 44 214 44q356 0 356 -192q0 -70 -69 -102q109 -51 109 -155
q0 -211 -393 -211z" />
    <glyph glyph-name="four" unicode="4" horiz-adv-x="820" 
d="M638 160v-35h107v-125h-419v125h106v35h-344l-73 104l431 355h192v-335h167v-124h-167zM432 284v108l-129 -108h129z" />
    <glyph glyph-name="five" unicode="5" horiz-adv-x="820" 
d="M790 202q0 -115 -121 -174q-106 -51 -279 -51q-136 0 -231 42q-129 58 -129 181h225q0 -53 55 -79q38 -18 86 -18q88 0 129 33q28 23 28 56q0 61 -22 85q-34 38 -138 38q-93 0 -158 -73h-165l1 377h709v-195h-139v49h-413v-80q80 50 186 50q140 0 243 -49
q133 -64 133 -192z" />
    <glyph glyph-name="six" unicode="6" horiz-adv-x="820" 
d="M427 95q66 0 98 40q22 28 22 66q0 104 -124 104q-67 0 -101 -31q-30 -28 -30 -72q0 -37 25 -66q36 -41 110 -41zM275 364q89 62 190 62q136 0 222 -70q79 -65 79 -156q0 -224 -351 -223q-156 0 -258.5 89.5t-102.5 225.5q0 181 132 272q105 74 261 74q101 0 192 -42
q113 -53 113 -142h-219q0 34 -37 54q-32 17 -79 17q-139 0 -142 -161z" />
    <glyph glyph-name="seven" unicode="7" horiz-adv-x="820" 
d="M156 476v-97h-138v240h784v-133q-65 -50 -130 -99q-78 -62 -119 -111q-82 -98 -82 -276h-273q0 143 50 228q41 72 161 166q33 26 105 82h-358z" />
    <glyph glyph-name="eight" unicode="8" horiz-adv-x="821" 
d="M410 262q-80 0 -114 -19t-34 -60q0 -80 141 -80q155 0 155 80q0 41 -32 59q-35 20 -116 20zM403 524q-77 0 -104 -25q-16 -16 -16 -49q0 -35 29 -50t107 -15q74 0 98 14q21 13 21 51q0 74 -135 74zM410 -23q-370 0 -370 211q0 104 111 156q-71 36 -71 111q0 104 97 149
q80 38 238 38q156 0 234 -38q92 -45 92 -149q0 -75 -71 -111q111 -52 111 -156q0 -211 -371 -211z" />
    <glyph glyph-name="nine" unicode="9" horiz-adv-x="820" 
d="M394 519q-120 0 -120 -97q0 -94 125 -94q130 0 130 94q0 34 -24 60q-36 37 -111 37zM545 259q-83 -52 -189 -52q-136 0 -221 65q-80 61 -80 151q0 105 104 162q94 52 247 52q146 0 253.5 -88.5t107.5 -216.5q0 -185 -118 -278q-101 -80 -262 -78q-112 1 -198 32
q-136 48 -136 155h226q8 -63 98 -63q151 0 168 159z" />
    <glyph glyph-name="colon" unicode=":" horiz-adv-x="401" 
d="M201 499q57 0 98.5 -34t41.5 -82t-41.5 -79t-98.5 -31t-99 31t-42 79t42 82t99 34zM201 211q57 0 98.5 -34t41.5 -82t-41.5 -79t-98.5 -31t-99 31t-42 79t42 82t99 34z" />
    <glyph glyph-name="semicolon" unicode=";" horiz-adv-x="413" 
d="M201 499q57 0 98.5 -34.5t41.5 -82.5q0 -49 -41.5 -80.5t-98.5 -31.5t-99 31.5t-42 80.5q0 48 42 82.5t99 34.5zM174 -19q-49 7 -80 36q-34 31 -34 74q0 48 42 82.5t99 34.5t103 -33q50 -36 49 -85q0 -61 -29 -104q-34 -50 -141 -108l-72 71q25 12 63 32z" />
    <glyph glyph-name="less" unicode="&#x3c;" horiz-adv-x="552" 
d="M403 -22l-373 292l373 291l119 -92l-257 -200l257 -200z" />
    <glyph glyph-name="equal" unicode="=" horiz-adv-x="604" 
d="M514 77h-424v106h424v-106zM514 252h-424v106h424v-106z" />
    <glyph glyph-name="greater" unicode="&#x3e;" horiz-adv-x="552" 
d="M149 561l373 -293l-373 -290l-119 91l257 200l-257 200z" />
    <glyph glyph-name="question" unicode="?" horiz-adv-x="760" 
d="M366 -16q-52 0 -90.5 29t-38.5 74t38.5 76.5t90.5 31.5t90 -31.5t38 -76.5t-38 -74t-90 -29zM675 351q-27 -25 -77 -43q-43 -15 -85 -29q-45 -19 -45 -72h-231q0 96 40 130q28 25 76 45q40 18 69 22q72 11 72 49q0 25 -11 35q-25 23 -107 23q-107 0 -107 -100v-4h-224
q0 117 118 180q94 50 219 50q171 0 249 -40q85 -45 84 -150q-1 -60 -40 -96z" />
    <glyph glyph-name="at" unicode="@" horiz-adv-x="900" 
d="M456 386q-39 1 -65 -41q-21 -35 -21 -76q0 -42 38 -42q28 0 41 10.5t37 31.5l25 104q-25 13 -52 13h-3zM532 461l86 -12l-53 -208q0 -55 53 -55q43 0 79.5 42t36.5 97q0 104 -81 157q-69 47 -180 47q-127 0 -202 -50q-88 -57 -88 -174q0 -149 88 -202q59 -36 191 -36
q88 0 109 2q61 5 105 29q25 -25 72 -77q-68 -48 -144 -58q-29 -4 -155 -4q-197 0 -313 91t-116 250q0 133 130 234q134 104 322 104q193 0 302 -85q106 -84 106 -226q0 -87 -109 -155q-100 -63 -201 -63q-53 0 -90 56q-44 -25 -93 -25q-56 0 -94 34q-42 36 -42 95
q0 87 64 142q60 53 148 53q35 0 66 -22z" />
    <glyph glyph-name="A" unicode="A" horiz-adv-x="987" 
d="M563 281l-64 125l-75 -125h139zM356 167l-25 -43h60v-124h-371v124h126l310 492l130 34l302 -526h79v-124h-371v124h48l-22 43h-266z" />
    <glyph glyph-name="B" unicode="B" horiz-adv-x="920" 
d="M351 269v-145h153q93 0 124 15q28 14 28 53q0 58 -58 72q-18 5 -106 5h-141zM488 383h18.5h20.5q37 0 53 5q28 9 28 49q0 50 -44 63q-17 5 -85 5l-128 -1v-121h137zM880 192q0 -118 -122 -162q-84 -30 -258 -30h-460v124h104v380h-104v115h388h47q31 1 47 1
q131 0 194 -23q104 -37 104 -144q0 -57 -47 -98q107 -42 107 -163z" />
    <glyph glyph-name="C" unicode="C" horiz-adv-x="944" 
d="M20 313q0 157 145 244q135 81 354 81q144 0 260 -72v54h139v-297h-139v36q0 62 -77 106t-182 44q-119 0 -185 -47q-71 -51 -71 -149q0 -101 76 -155q68 -49 179 -49q204 0 260 138h145q0 -95 -86 -167q-109 -91 -318 -91q-500 0 -500 324z" />
    <glyph glyph-name="D" unicode="D" horiz-adv-x="956" 
d="M351 125h153q108 0 150 46q38 42 38 144q0 99 -44 142q-46 47 -156 47h-141v-379zM144 504h-104v115h448q198 0 308 -71q120 -78 120 -233q0 -156 -113 -237q-108 -77 -303 -77h-460v124h104v379z" />
    <glyph glyph-name="E" unicode="E" horiz-adv-x="861" 
d="M683 241h138v-241h-89h-692v124h104v380h-104v115h781v-240h-138v125h-332v-129h228v-115h-228v-136h332v117z" />
    <glyph glyph-name="F" unicode="F" horiz-adv-x="861" 
d="M683 504h-332v-129h228v-115h-228v-136h108v-124h-419v124h104v380h-104v115h781v-240h-138v125z" />
    <glyph glyph-name="G" unicode="G" horiz-adv-x="954" 
d="M817 3l-36 49q-94 -63 -259 -63q-502 0 -502 324q0 157 146 244q136 81 355 81q73 0 152 -23q72 -20 118 -49v54h139v-297h-139v36q0 62 -77 106t-182 44q-121 0 -192 -48q-76 -51 -76 -148q0 -100 81 -155q73 -49 186 -49q160 0 195 76h-128v115h336v-297h-117z" />
    <glyph glyph-name="H" unicode="H" horiz-adv-x="1051" 
d="M351 375h345v129h-104v115h419v-115h-108v-380h108v-124h-419v124h104v136h-345v-136h108v-124h-419v124h104v380h-104v115h419v-115h-108v-129z" />
    <glyph glyph-name="I" unicode="I" horiz-adv-x="499" 
d="M351 124h108v-124h-419v124h104v380h-104v115h419v-115h-108v-380z" />
    <glyph glyph-name="J" unicode="J" horiz-adv-x="680" 
d="M530 504v-335q0 -94 -80 -145q-69 -44 -173 -44q-111 0 -175 60q-69 64 -70 186h183v-69q0 -58 50 -58h1q35 0 47 14q9 12 10 47l1 39v305h-129v115h443v-115h-108z" />
    <glyph glyph-name="K" unicode="K" horiz-adv-x="915" 
d="M536 508v111h311v-115h-114l-199 -177l240 -203h121v-124h-259l-232 212l-53 -47v-41h84v-124h-395v124h104v380h-104v115h395v-115h-84v-164z" />
    <glyph glyph-name="L" unicode="L" horiz-adv-x="861" 
d="M683 241h138v-241h-781v124h104v380h-104v115h419v-115h-108v-380h332v117z" />
    <glyph glyph-name="M" unicode="M" horiz-adv-x="1238" 
d="M619 1h-43l-273 326v-203h144v-124h-407v124h104v380h-104v115h258l22 -6l294 -339l292 339l22 6h270v-115h-104v-380h104v-124h-419v124h108v202z" />
    <glyph glyph-name="N" unicode="N" 
d="M724 0l-13 12l-408 366v-254h108v-124h-371v124h104v380h-104v115h282l21 -6l353 -319v210h-104v115h371v-115h-108v-504h-131z" />
    <glyph glyph-name="O" unicode="O" horiz-adv-x="1039" 
d="M519 109q121 0 187 49q70 53 70 155q0 95 -72 146q-68 50 -184 50q-119 0 -185 -47q-71 -51 -71 -149q0 -101 76 -155q68 -49 179 -49zM519 638q220 0 355 -81q145 -87 145 -244q0 -324 -499 -324q-500 0 -500 324q0 157 145 244q135 81 354 81z" />
    <glyph glyph-name="P" unicode="P" horiz-adv-x="860" 
d="M144 124v380h-104v115h388h47q31 1 47 1q131 0 194 -23q104 -37 104 -144q0 -114 -120 -158q-86 -31 -260 -31h-89v-140h112v-124h-419v124h100zM351 504v-135h93q106 0 135 13t29 55q0 50 -44 63q-17 5 -85 5z" />
    <glyph glyph-name="Q" unicode="Q" horiz-adv-x="1077" 
d="M621 285l126 -87q29 46 29 113q0 95 -72 147q-68 50 -184 50q-119 0 -185 -48q-71 -50 -71 -149q0 -103 76 -157q68 -50 179 -50q35 0 65 5l-90 73zM1057 -17l-184 -111l-155 127q-86 -16 -198 -16q-500 0 -500 328q0 158 145 245q135 82 354 82q220 0 355 -82
q145 -87 145 -245q0 -150 -102 -231z" />
    <glyph glyph-name="R" unicode="R" horiz-adv-x="923" 
d="M883 124v-124h-260l-223 264h-49v-140h112v-124h-419v124h100v380h-104v115h388h47q31 1 47 1q131 0 194 -23q104 -37 104 -144q0 -145 -192 -178l145 -151h110zM351 504v-135h93q106 0 137 14q27 12 27 54q0 50 -44 63q-17 5 -85 5z" />
    <glyph glyph-name="S" unicode="S" horiz-adv-x="822" 
d="M414 -22q-151 0 -236 45v-27h-138v251h138v-36q0 -56 87 -83q66 -20 166 -20q54 0 94 13q50 16 50 45q0 37 -58 48q-55 5 -179 19q-100 13 -168 47q-112 56 -112 156q0 114 113 170q87 42 215 42q67 0 142 -21q71 -19 109 -46v49h138v-241h-138v36q0 44 -79 71
q-66 22 -148 22q-79 0 -107 -9q-40 -12 -40 -52q0 -15 23 -24q12 -5 53 -12q94 -12 188 -23q118 -17 176 -56q79 -54 79 -162q0 -95 -90 -147q-94 -55 -278 -55z" />
    <glyph glyph-name="T" unicode="T" horiz-adv-x="962" 
d="M40 619h882v-240h-138v125h-200v-380h132v-124h-467v124h129v380h-200v-125h-138v240z" />
    <glyph glyph-name="U" unicode="U" 
d="M963 504h-108v-308q0 -84 -71 -143q-90 -73 -266 -73q-182 0 -285 73q-89 62 -89 143v308h-104v115h419v-115h-108v-284q0 -109 169 -109q88 0 121 14q55 23 55 96v283h-104v115h371v-115z" />
    <glyph glyph-name="V" unicode="V" horiz-adv-x="967" 
d="M10 618h371v-115h-47l167 -290l155 290h-70v115h371v-115h-119l-295 -504h-129l-324 504h-80v115z" />
    <glyph glyph-name="W" unicode="W" horiz-adv-x="1435" 
d="M10 618h371v-115h-49l158 -290l128 227l-37 63h-79v115h431v-115h-108l144 -287l144 287h-71v115h383v-115h-131l-282 -504h-131l-183 308l-166 -308h-131l-312 504h-79v115z" />
    <glyph glyph-name="X" unicode="X" horiz-adv-x="979" 
d="M27 618h359v-115h-27l143 -117l139 117h-50v115h359v-115h-124l-219 -179l278 -209h84v-115h-395v115h27l-146 119l-128 -119h54v-115h-371v115h123l222 187l-245 201h-83v115z" />
    <glyph glyph-name="Y" unicode="Y" horiz-adv-x="967" 
d="M693 124v-124h-419v124h104v100l-286 279h-82v115h371v-115h-34l154 -153l144 153h-59v115h371v-115h-122l-250 -268v-111h108z" />
    <glyph glyph-name="Z" unicode="Z" horiz-adv-x="921" 
d="M40 0v114l520 390h-355v-125h-138v240h781v-104l-487 -391h382v117h138v-241h-841z" />
    <glyph glyph-name="bracketleft" unicode="[" horiz-adv-x="557" 
d="M55 -101v820h447v-116l-240 -1v-576h240v-127h-447z" />
    <glyph glyph-name="backslash" unicode="\" horiz-adv-x="535" 
d="M323 -100l-304 789h193l303 -789h-192z" />
    <glyph glyph-name="bracketright" unicode="]" horiz-adv-x="557" 
d="M502 -101v820h-447v-116l240 -1v-576h-240v-127h447z" />
    <glyph glyph-name="asciicircum" unicode="^" 
d="M299 672l-23 76l179 70l183 -70l-23 -76l-160 62z" />
    <glyph glyph-name="underscore" unicode="_" horiz-adv-x="608" 
d="M528 -103h-448v81h448v-81z" />
    <glyph glyph-name="grave" unicode="`" horiz-adv-x="230" 
d="M24 721l167 -49l23 76l-179 70z" />
    <glyph glyph-name="a" unicode="a" horiz-adv-x="1027" 
d="M603 281l-64 125l-75 -125h139zM396 167l-25 -43h60v-124h-371v124h126l310 501h149l283 -501h79v-124h-371v124h48l-22 43h-266z" />
    <glyph glyph-name="b" unicode="b" horiz-adv-x="920" 
d="M351 269v-145h153q93 0 124 15q28 14 28 53q0 58 -58 72q-18 5 -106 5h-141zM488 383h18.5h20.5q37 0 53 5q28 9 28 49q0 50 -44 63q-17 5 -85 5l-128 -1v-121h137zM880 192q0 -118 -122 -162q-84 -30 -258 -30h-460v124h104v380h-104v115h388h47q31 1 47 1
q131 0 194 -23q104 -37 104 -144q0 -57 -47 -98q107 -42 107 -163z" />
    <glyph glyph-name="c" unicode="c" horiz-adv-x="944" 
d="M20 313q0 157 145 244q135 81 354 81q144 0 260 -72v54h139v-297h-139v36q0 62 -77 106t-182 44q-119 0 -185 -47q-71 -51 -71 -149q0 -101 76 -155q68 -49 179 -49q204 0 260 138h145q0 -95 -86 -167q-109 -91 -318 -91q-500 0 -500 324z" />
    <glyph glyph-name="d" unicode="d" horiz-adv-x="956" 
d="M351 125h153q108 0 150 46q38 42 38 144q0 99 -44 142q-46 47 -156 47h-141v-379zM144 504h-104v115h448q198 0 308 -71q120 -78 120 -233q0 -157 -113 -237q-108 -77 -303 -77h-460v124h104v379z" />
    <glyph glyph-name="e" unicode="e" horiz-adv-x="861" 
d="M683 241h138v-241h-89h-692v124h104v380h-104v115h781v-240h-138v125h-332v-129h228v-115h-228v-136h332v117z" />
    <glyph glyph-name="f" unicode="f" horiz-adv-x="861" 
d="M683 504h-332v-129h228v-115h-228v-136h108v-124h-419v124h104v380h-104v115h781v-240h-138v125z" />
    <glyph glyph-name="g" unicode="g" horiz-adv-x="954" 
d="M817 3l-36 49q-94 -63 -259 -63q-502 0 -502 324q0 157 146 244q136 81 355 81q73 0 152 -23q72 -20 118 -49v54h139v-297h-139v36q0 62 -77 106t-182 44q-121 0 -192 -48q-76 -51 -76 -148q0 -100 81 -155q73 -49 186 -49q160 0 195 76h-128v115h336v-297h-117z" />
    <glyph glyph-name="h" unicode="h" horiz-adv-x="1051" 
d="M351 375h345v129h-104v115h419v-115h-108v-380h108v-124h-419v124h104v136h-345v-136h108v-124h-419v124h104v380h-104v115h419v-115h-108v-129z" />
    <glyph glyph-name="i" unicode="i" horiz-adv-x="499" 
d="M351 124h108v-124h-419v124h104v380h-104v115h419v-115h-108v-380z" />
    <glyph glyph-name="j" unicode="j" horiz-adv-x="680" 
d="M531 504v-335q0 -94 -80 -145q-70 -44 -174 -44q-111 0 -175 60q-69 64 -70 186h183v-69q0 -58 50 -58h1q36 0 46.5 13t10.5 48l1 39v305h-128v115h443v-115h-108z" />
    <glyph glyph-name="k" unicode="k" horiz-adv-x="915" 
d="M536 508v111h311v-115h-114l-199 -177l240 -203h121v-124h-259l-284 260l-1 -136h84v-124h-395v124h104v380h-104v115h395v-115h-84v-164z" />
    <glyph glyph-name="l" unicode="l" horiz-adv-x="861" 
d="M683 241h138v-241h-781v124h104v380h-104v115h419v-115h-108v-380h332v117z" />
    <glyph glyph-name="m" unicode="m" horiz-adv-x="1238" 
d="M619 1h-43l-273 326v-203h144v-124h-407v124h104v380h-104v115h258l22 -6l294 -339l292 339l22 6h270v-115h-104v-380h104v-124h-419v124h108v202z" />
    <glyph glyph-name="n" unicode="n" 
d="M724 0l-13 12l-408 366v-254h108v-124h-371v124h104v380h-104v115h282l21 -6l353 -319v210h-104v115h371v-115h-108v-504h-131z" />
    <glyph glyph-name="o" unicode="o" horiz-adv-x="1039" 
d="M519 109q121 0 187 49q70 53 70 155q0 95 -72 146q-68 50 -184 50q-119 0 -185 -47q-71 -51 -71 -149q0 -101 76 -155q68 -49 179 -49zM519 638q220 0 355 -81q145 -87 145 -244q0 -324 -499 -324q-500 0 -500 324q0 157 145 244q135 81 354 81z" />
    <glyph glyph-name="p" unicode="p" horiz-adv-x="860" 
d="M144 124v380h-104v115h388h47q31 1 47 1q131 0 194 -23q104 -37 104 -144q0 -114 -120 -158q-86 -31 -260 -31h-89v-140h112v-124h-419v124h100zM351 504v-135h93q106 0 135 13t29 55q0 50 -44 63q-17 5 -85 5z" />
    <glyph glyph-name="q" unicode="q" horiz-adv-x="1039" 
d="M660 133q-13 26 -46 33q-18 4 -75 4v61q11 0 52.5 2t69.5 2q57 0 99 -8q16 38 16 86q0 95 -72 146q-68 50 -184 50q-119 0 -185 -47q-71 -51 -71 -149q0 -101 76 -155q68 -49 179 -49q83 0 141 24zM893 68q5 -62 52 -62q42 0 40 68h67v-66q0 -51 -62 -78
q-47 -20 -106 -20q-83 0 -126 15q-57 21 -76 74q-73 -10 -162 -10q-500 0 -500 324q0 157 145 244q135 81 354 81q220 0 355 -81q145 -87 145 -244q0 -165 -126 -245z" />
    <glyph glyph-name="r" unicode="r" horiz-adv-x="923" 
d="M902 144v-66q0 -51 -62 -78q-47 -20 -106 -20q-104 0 -150 26q-62 35 -62 131q0 75 -33 104q-26 23 -89 23h-49v-140h112v-124h-419v124h100v380h-104v115l482 1q131 0 194 -23q104 -37 104 -144q0 -145 -192 -178l68 -28q46 -27 46 -79q0 -43 7 -62q12 -30 46 -30
q42 0 40 68h67zM351 504v-135h93q106 0 137 14q27 12 27 54t-27 56q-17 9 -66 11q-51 2 -164 0z" />
    <glyph glyph-name="s" unicode="s" horiz-adv-x="822" 
d="M414 -22q-151 0 -236 45v-27h-138v251h138v-36q0 -56 87 -83q66 -20 166 -20q54 0 94 13q50 16 50 45q0 37 -58 48q-55 5 -179 19q-100 13 -168 47q-112 56 -112 156q0 114 113 170q87 42 215 42q67 0 142 -21q71 -19 109 -46v49h138v-241h-138v36q0 44 -79 71
q-66 22 -148 22q-79 0 -107 -9q-40 -12 -40 -52q0 -15 23 -24q12 -5 53 -12q94 -12 188 -23q118 -17 176 -56q79 -54 79 -162q0 -95 -90 -147q-94 -55 -278 -55z" />
    <glyph glyph-name="t" unicode="t" horiz-adv-x="962" 
d="M40 619h882v-240h-138v125h-200v-380h132v-124h-467v124h129v380h-200v-125h-138v240z" />
    <glyph glyph-name="u" unicode="u" 
d="M963 504h-108v-308q0 -84 -71 -143q-90 -73 -266 -73q-182 0 -285 73q-89 62 -89 143v308h-104v115h419v-115h-108v-284q0 -109 169 -109q88 0 121 14q55 23 55 96v283h-104v115h371v-115z" />
    <glyph glyph-name="v" unicode="v" horiz-adv-x="967" 
d="M10 618h371v-115h-47l167 -290l155 290h-70v115h371v-115h-119l-295 -504h-129l-324 504h-80v115z" />
    <glyph glyph-name="w" unicode="w" horiz-adv-x="1435" 
d="M10 618h371v-115h-49l158 -290l128 227l-37 63h-79v115h431v-115h-108l144 -287l144 287h-71v115h383v-115h-131l-282 -504h-131l-183 308l-166 -308h-131l-312 504h-79v115z" />
    <glyph glyph-name="x" unicode="x" horiz-adv-x="979" 
d="M27 618h359v-115h-27l143 -117l139 117h-50v115h359v-115h-124l-219 -179l278 -209h84v-115h-395v115h27l-146 119l-128 -119h54v-115h-371v115h123l222 187l-245 201h-83v115z" />
    <glyph glyph-name="y" unicode="y" horiz-adv-x="967" 
d="M693 124v-124h-419v124h104v100l-286 279h-82v115h371v-115h-34l154 -153l144 153h-59v115h371v-115h-122l-250 -268v-111h108z" />
    <glyph glyph-name="z" unicode="z" horiz-adv-x="921" 
d="M40 0v114l520 390h-355v-125h-138v240h781v-104l-487 -391h382v117h138v-241h-841z" />
    <glyph glyph-name="braceleft" unicode="{" horiz-adv-x="547" 
d="M512 603v116q-78 11 -146 11q-129 0 -188 -58q-44 -43 -43 -103q-1 -111 -31 -156q-35 -38 -69 -76v-39q26 -33 51.5 -66.5t35.5 -71.5q13 -48 13 -131q0 -64 60 -103q63 -42 179 -42q43 0 138 15v117q-7 0 -44.5 -5t-62.5 -5q-100 0 -100 75q0 101 -5 119q-12 47 -71 94
v39q42 35 53 56q29 51 30 151q0 73 86 73q21 0 61 -5t53 -5z" />
    <glyph glyph-name="bar" unicode="|" horiz-adv-x="527" 
d="M327 689h-127v-789h127v789z" />
    <glyph glyph-name="braceright" unicode="}" horiz-adv-x="547" 
d="M35 603v116q79 11 146 11q129 0 189 -58q43 -43 42 -103q1 -111 31 -156q35 -38 69 -76v-39q-26 -33 -51.5 -66.5t-35.5 -71.5q-13 -48 -13 -131q0 -64 -60 -103q-63 -42 -179 -42q-42 0 -138 15v117q7 0 45 -5t62 -5q100 0 100 75q1 101 5 119q12 47 71 94v39
q-41 35 -53 56q-29 51 -30 151q0 73 -86 73q-21 0 -61 -5t-53 -5z" />
    <glyph glyph-name="asciitilde" unicode="~" horiz-adv-x="530" 
d="M42 440q54 58 130 58q38 0 100.5 -35.5t89.5 -35.5q52 0 63 5q14 14 29 27l35 -52q-51 -55 -133 -55q-48 0 -109.5 35.5t-95.5 35.5q-30 0 -41 -7q-4 -3 -31 -30z" />
    <glyph glyph-name="nonbreakingspace" unicode="&#xa0;" horiz-adv-x="32767" 
 />
    <glyph glyph-name="exclamdown" unicode="&#xa1;" horiz-adv-x="343" 
d="M45 -16l26 413h206l26 -413h-258zM170 425q-52 0 -91 31.5t-39 76.5t39 74t91 29t90 -29t38 -74t-38 -76.5t-90 -31.5z" />
    <glyph glyph-name="cent" unicode="&#xa2;" horiz-adv-x="743" 
d="M454 -9v-97h-97v96q-302 14 -302 226q0 101 87 161q80 56 215 65v62h97v-65q76 -11 132 -46v38h97v-209h-97v26q0 43 -54 74t-127 31q-179 0 -179 -137q0 -71 53 -109q48 -34 126 -34q142 0 181 97h102q0 -60 -50 -108q-64 -61 -184 -71z" />
    <glyph glyph-name="sterling" unicode="&#xa3;" horiz-adv-x="820" 
d="M35 241v115h109q-15 37 -15 70q0 103 87 159q82 52 226 52q124 0 214 -50q111 -62 111 -180h-214q2 103 -113 103q-52 0 -72 -18t-20 -69q0 -14 7 -34q6 -16 12 -33h219v-115h-217q-11 -48 -59 -80q25 2 65 5q39 0 145 -26q38 -10 50 -10q21 0 21 38q0 14 -2 44h188
q0 -18 4 -49.5t4 -54.5q0 -55 -41.5 -86t-119.5 -31h-33q-28 2 -99 21q-61 15 -99 15q-84 0 -176 -15q-40 -6 -171 -34v164q32 23 64.5 46.5t43.5 52.5h-119z" />
    <glyph glyph-name="yen" unicode="&#xa5;" horiz-adv-x="967" 
 />
    <glyph glyph-name="brokenbar" unicode="&#xa6;" horiz-adv-x="527" 
d="M327 -100h-127v369h126zM200 689h127v-291h-127v291z" />
    <glyph glyph-name="dieresis" unicode="&#xa8;" 
d="M313 718q0 20 21 35t50 15t50 -15t21 -35q0 -21 -21 -36t-50 -15t-50 15t-21 36zM513 718q0 20 21 35t50 15t50 -15t21 -35q0 -21 -21 -36t-50 -15t-50 15t-21 36z" />
    <glyph glyph-name="copyright" unicode="&#xa9;" horiz-adv-x="1040" 
d="M341 283q0 63 58 98q54 32 142 32q57 0 104 -28v21h55v-119h-55v15q0 25 -31 42.5t-73 17.5q-102 0 -102 -79q0 -40 30 -62q27 -19 72 -19q81 0 104 55h58q0 -38 -35 -67q-43 -36 -127 -36q-200 0 -200 129zM519 69q127 0 196 52q74 55 74 163q0 98 -76 153
q-71 52 -193 52q-125 0 -194 -50q-75 -52 -75 -155q0 -107 80 -164q71 -51 188 -51zM519 576q198 0 320 -73q131 -79 131 -220q0 -292 -450 -292t-450 292q0 141 131 220q121 73 318 73z" />
    <glyph glyph-name="guillemotleft" unicode="&#xab;" horiz-adv-x="952" 
d="M803 -22l-373 252l373 251l119 -52l-257 -200l257 -200zM403 -22l-373 252l373 251l119 -52l-257 -200l257 -200z" />
    <glyph glyph-name="minus" unicode="&#xad;" horiz-adv-x="606" 
d="M94 277v81h424v-81h-424z" />
    <glyph glyph-name="minus" unicode="&#x2212;" horiz-adv-x="606" 
d="M94 277v81h424v-81h-424z" />
    <glyph glyph-name="registered" unicode="&#xae;" horiz-adv-x="1040" 
d="M519 69q127 0 196 52q74 55 74 163q0 98 -76 153q-71 52 -193 52q-125 0 -194 -50q-75 -52 -75 -155q0 -107 80 -164q71 -51 188 -51zM519 576q198 0 320 -73q131 -79 131 -220q0 -292 -450 -292t-450 292q0 141 131 220q121 73 318 73zM703 238v-27q0 -39 -67 -39
q-42 0 -60 10q-25 14 -25 53q0 50 -48 50h-20v-55h45v-50h-168v50h40v152h-41v46h193q54 0 80 -10q39 -15 39 -57q0 -58 -77 -71q13 -6 27 -11q18 -11 18 -32q0 -37 22 -37q16 0 16 28h26zM483 382v-54h37q36 0 42 1q24 4 24 26q0 25 -38 27h-65z" />
    <glyph glyph-name="macron" unicode="&#xaf;" 
d="M287 768h433v-78h-433v78z" />
    <glyph glyph-name="macron" unicode="&#x2c9;" 
d="M287 768h433v-78h-433v78z" />
    <glyph glyph-name="degree" unicode="&#xb0;" horiz-adv-x="524" 
d="M265 404q36 0 56 29q18 26 18 63q0 113 -74 113q-43 0 -63 -37q-17 -30 -17 -76q0 -37 22 -64.5t58 -27.5zM459 410q-61 -93 -195 -93q-90 0 -155 50q-69 53 -69 135t70 137q66 51 154 51t153 -52q67 -55 67 -136q0 -53 -25 -92z" />
    <glyph glyph-name="plusminus" unicode="&#xb1;" horiz-adv-x="608" 
d="M374 487v-115h154v-109h-154v-116h-138v116h-156v109h156v115h138zM80 -43h448v81h-448v-81z" />
    <glyph glyph-name="twosuperior" unicode="&#xb2;" horiz-adv-x="410" 
d="M64 389v42q0 61 138 94q37 8 47.5 14.5t10.5 22.5q0 31 -52 31q-48 0 -48 -41h-89q0 47 49 72q40 20 91 20q144 0 144 -84q0 -36 -25 -55q-18 -15 -68 -32q-28 -6 -76 -20q-22 -6 -28 -14h155v46h55v-96h-304z" />
    <glyph glyph-name="threesuperior" unicode="&#xb3;" horiz-adv-x="410" 
d="M209 381q-55 0 -94 19q-51 25 -51 74l90 1q0 -19 17 -31t43 -12q58 -1 58 35q0 17 -24 22q-12 2 -59 2v57h3q39 0 52 3q20 4 20 19q0 28 -50 28t-50 -39h-87q0 46 45 68q35 18 85 18q143 0 143 -77q0 -28 -28 -40q44 -21 44 -62q0 -85 -157 -85z" />
    <glyph glyph-name="acute" unicode="&#xb4;" horiz-adv-x="230" 
d="M210 721l-167 -49l-23 76l179 70z" />
    <glyph glyph-name="mu" unicode="&#xb5;" horiz-adv-x="1238" 
d="M619 1h-43l-273 326v-203h144v-124h-407v124h104v380h-104v115h258l22 -6l294 -339l292 339l22 6h270v-115h-104v-380h104v-124h-419v124h108v202z" />
    <glyph glyph-name="mu" unicode="&#x3bc;" horiz-adv-x="1238" 
d="M619 1h-43l-273 326v-203h144v-124h-407v124h104v380h-104v115h258l22 -6l294 -339l292 339l22 6h270v-115h-104v-380h104v-124h-419v124h108v202z" />
    <glyph glyph-name="periodcentered" unicode="&#xb7;" horiz-adv-x="399" 
d="M200 499q57 0 98.5 -30.5t41.5 -74.5q0 -43 -41.5 -71t-98.5 -28t-99 28t-42 71q0 44 42 74.5t99 30.5z" />
    <glyph glyph-name="periodcentered" unicode="&#x2219;" horiz-adv-x="399" 
d="M200 499q57 0 98.5 -30.5t41.5 -74.5q0 -43 -41.5 -71t-98.5 -28t-99 28t-42 71q0 44 42 74.5t99 30.5z" />
    <glyph glyph-name="cedilla" unicode="&#xb8;" horiz-adv-x="820" 
d="M337 48v-92q32 20 75 20q56 0 97 -20q53 -25 53 -76q0 -46 -48 -70q-43 -21 -112 -21q-54 0 -92 17q-52 24 -52 73h90q0 -39 56 -39q63 0 63 35q0 25 -9 35q-13 15 -55 15q-37 0 -63 -30h-66v153h63z" />
    <glyph glyph-name="onesuperior" unicode="&#xb9;" horiz-adv-x="410" 
d="M290 384h-168v50h43v112h-45v45q42 4 46 41h82l-1 -198h43v-50z" />
    <glyph glyph-name="guillemotright" unicode="&#xbb;" horiz-adv-x="952" 
d="M149 -22l373 252l-373 251l-119 -52l257 -200l-257 -200zM549 -22l373 252l-373 251l-119 -52l257 -200l-257 -200z" />
    <glyph glyph-name="onequarter" unicode="&#xbc;" horiz-adv-x="750" 
d="M289 384h-168v50h43v112h-45v45q42 4 46 41h82l-1 -198h43v-50zM678 529l-90 89l-558 -558l90 -89zM653 64v-14h43v-50h-168v50h43v14h-138l-29 42l172 142h77v-134h67v-50h-67zM571 114v43l-52 -43h52z" />
    <glyph glyph-name="onehalf" unicode="&#xbd;" horiz-adv-x="750" 
d="M289 384h-168v50h43v112h-45v45q42 4 46 41h82l-1 -198h43v-50zM416 0v42q0 61 138 94q37 8 47.5 14.5t10.5 22.5q0 31 -52 31q-48 0 -48 -41h-89q0 47 49 72q40 20 91 20q144 0 144 -85q0 -35 -25 -55q-18 -14 -68 -31q-28 -7 -76 -20q-22 -7 -28 -14h155v46h55v-96
h-304zM678 529l-90 89l-558 -558l90 -89z" />
    <glyph glyph-name="threequarters" unicode="&#xbe;" horiz-adv-x="750" 
d="M678 529l-90 89l-558 -558l90 -89zM653 64v-14h43v-50h-168v50h43v14h-138l-29 42l172 142h77v-134h67v-50h-67zM571 114v43l-52 -43h52zM209 381q-55 0 -94 19q-51 25 -51 74l90 1q0 -19 17 -31t43 -12q58 -1 58 35q0 17 -24 22q-12 2 -59 2v57h3q39 0 52 3q20 4 20 19
q0 28 -50 28q-49 0 -49 -39h-88q0 46 45 68q36 18 86 18q142 0 142 -77q0 -28 -28 -40q44 -21 44 -62q0 -85 -157 -85z" />
    <glyph glyph-name="questiondown" unicode="&#xbf;" horiz-adv-x="789" 
d="M393 -16q-171 0 -249 41q-85 44 -84 149q1 64 47 102q34 28 106 50q54 17 67 26q27 18 27 62h231q0 -95 -40 -130q-28 -24 -76 -45q-40 -17 -69 -22q-72 -11 -72 -49q0 -25 11 -35q25 -22 107 -22q107 0 107 100v3h224q0 -117 -118 -180q-94 -50 -219 -50zM409 427
q-52 0 -90 31.5t-38 76.5q0 44 38 73t90 29t90.5 -29t38.5 -73q0 -45 -38.5 -76.5t-90.5 -31.5z" />
    <glyph glyph-name="Agrave" unicode="&#xc0;" horiz-adv-x="987" 
d="M563 281l-64 125l-75 -125h139zM356 167l-25 -43h60v-124h-371v124h126l310 492l130 34l302 -526h79v-124h-371v124h48l-22 43h-266zM424 721l167 -49l23 76l-179 70z" />
    <glyph glyph-name="Aacute" unicode="&#xc1;" horiz-adv-x="987" 
d="M563 281l-64 125l-75 -125h139zM356 167l-25 -43h60v-124h-371v124h126l310 492l130 34l302 -526h79v-124h-371v124h48l-22 43h-266zM610 721l-167 -49l-23 76l179 70z" />
    <glyph glyph-name="Acircumflex" unicode="&#xc2;" horiz-adv-x="987" 
d="M563 281l-64 125l-75 -125h139zM356 167l-25 -43h60v-124h-371v124h126l310 492l130 34l302 -526h79v-124h-371v124h48l-22 43h-266zM369 672l-23 76l179 70l183 -70l-23 -76l-160 62z" />
    <glyph glyph-name="Atilde" unicode="&#xc3;" horiz-adv-x="987" 
d="M563 281l-64 125l-75 -125h139zM356 167l-25 -43h60v-124h-371v124h126l310 492l130 34l302 -526h79v-124h-371v124h48l-22 43h-266z" />
    <glyph glyph-name="Adieresis" unicode="&#xc4;" horiz-adv-x="987" 
d="M563 281l-64 125l-75 -125h139zM356 167l-25 -43h60v-124h-371v124h126l310 492l130 34l302 -526h79v-124h-371v124h48l-22 43h-266zM373 718q0 20 21 35t50 15t50 -15t21 -35q0 -21 -21 -36t-50 -15t-50 15t-21 36zM573 718q0 20 21 35t50 15t50 -15t21 -35
q0 -21 -21 -36t-50 -15t-50 15t-21 36z" />
    <glyph glyph-name="Aring" unicode="&#xc5;" horiz-adv-x="987" 
d="M563 281l-64 125l-75 -125h139zM356 167l-25 -43h60v-124h-371v124h126l310 492l130 34l302 -526h79v-124h-371v124h48l-22 43h-266z" />
    <glyph glyph-name="AE" unicode="&#xc6;" horiz-adv-x="952" 
d="M596 504h-245l-26 -219q-5 -38 -49 -94q-46 -60 -85 -67h405v380zM188 -125h-148v249q35 -2 81.5 53t56.5 107q33 178 33 220v15q-1 9 -1 15v85h701v-115h-108v-380h108l1 -249h-138v125h-586v-125z" />
    <glyph glyph-name="Ccedilla" unicode="&#xc7;" horiz-adv-x="944" 
d="M20 313q0 157 145 244q135 81 354 81q144 0 260 -72v54h139v-297h-139v36q0 62 -77 106t-182 44q-119 0 -185 -47q-71 -51 -71 -149q0 -101 76 -155q68 -49 179 -49q204 0 260 138h145q0 -95 -86 -167q-109 -91 -318 -91q-500 0 -500 324zM527 48v-92q32 20 75 20
q56 0 97 -20q53 -25 53 -76q0 -46 -48 -70q-43 -21 -112 -21q-54 0 -92 17q-52 24 -52 73h90q0 -39 56 -39q63 0 63 35q0 25 -9 35q-13 15 -55 15q-37 0 -63 -30h-66v153h63z" />
    <glyph glyph-name="Egrave" unicode="&#xc8;" horiz-adv-x="861" 
d="M683 241h138v-241h-89h-692v124h104v380h-104v115h781v-240h-138v125h-332v-129h228v-115h-228v-136h332v117zM324 721l167 -49l23 76l-179 70z" />
    <glyph glyph-name="Eacute" unicode="&#xc9;" horiz-adv-x="861" 
d="M683 241h138v-241h-89h-692v124h104v380h-104v115h781v-240h-138v125h-332v-129h228v-115h-228v-136h332v117zM540 721l-167 -49l-23 76l179 70z" />
    <glyph glyph-name="Ecircumflex" unicode="&#xca;" horiz-adv-x="861" 
d="M683 241h138v-241h-89h-692v124h104v380h-104v115h781v-240h-138v125h-332v-129h228v-115h-228v-136h332v117zM299 672l-23 76l179 70l183 -70l-23 -76l-160 62z" />
    <glyph glyph-name="Edieresis" unicode="&#xcb;" horiz-adv-x="861" 
d="M683 241h138v-241h-89h-692v124h104v380h-104v115h781v-240h-138v125h-332v-129h228v-115h-228v-136h332v117zM313 718q0 20 21 35t50 15t50 -15t21 -35q0 -21 -21 -36t-50 -15t-50 15t-21 36zM513 718q0 20 21 35t50 15t50 -15t21 -35q0 -21 -21 -36t-50 -15t-50 15
t-21 36z" />
    <glyph glyph-name="Igrave" unicode="&#xcc;" horiz-adv-x="499" 
d="M351 124h108v-124h-419v124h104v380h-104v115h419v-115h-108v-380zM154 721l167 -49l23 76l-179 70z" />
    <glyph glyph-name="Iacute" unicode="&#xcd;" horiz-adv-x="499" 
d="M351 124h108v-124h-419v124h104v380h-104v115h419v-115h-108v-380zM310 721l-167 -49l-23 76l179 70z" />
    <glyph glyph-name="Icircumflex" unicode="&#xce;" horiz-adv-x="499" 
d="M351 124h108v-124h-419v124h104v380h-104v115h419v-115h-108v-380zM99 672l-23 76l179 70l183 -70l-23 -76l-160 62z" />
    <glyph glyph-name="Idieresis" unicode="&#xcf;" horiz-adv-x="499" 
d="M351 124h108v-124h-419v124h104v380h-104v115h419v-115h-108v-380zM93 718q0 20 21 35t50 15t50 -15t21 -35q0 -21 -21 -36t-50 -15t-50 15t-21 36zM293 718q0 20 21 35t50 15t50 -15t21 -35q0 -21 -21 -36t-50 -15t-50 15t-21 36z" />
    <glyph glyph-name="Eth" unicode="&#xd0;" horiz-adv-x="956" 
d="M351 125h153q108 0 150 46q38 42 38 144q0 99 -44 142q-46 47 -156 47h-141v-379zM144 504h-104v115h448q198 0 308 -71q120 -78 120 -233q0 -156 -113 -237q-108 -77 -303 -77h-460v124h104v379zM34 277v81h424v-81h-424z" />
    <glyph glyph-name="Ntilde" unicode="&#xd1;" 
d="M724 0l-13 12l-408 366v-254h108v-124h-371v124h104v380h-104v115h282l21 -6l353 -319v210h-104v115h371v-115h-108v-504h-131zM279 740q54 58 130 58q38 0 100.5 -35.5t89.5 -35.5q52 0 63 5q14 14 29 27l35 -52q-51 -55 -133 -55q-48 0 -109.5 35.5t-95.5 35.5
q-30 0 -41 -7q-4 -3 -31 -30z" />
    <glyph glyph-name="Ograve" unicode="&#xd2;" horiz-adv-x="1039" 
d="M519 109q121 0 187 49q70 53 70 155q0 95 -72 146q-68 50 -184 50q-119 0 -185 -47q-71 -51 -71 -149q0 -101 76 -155q68 -49 179 -49zM519 638q220 0 355 -81q145 -87 145 -244q0 -324 -499 -324q-500 0 -500 324q0 157 145 244q135 81 354 81zM424 721l167 -49l23 76
l-179 70z" />
    <glyph glyph-name="Oacute" unicode="&#xd3;" horiz-adv-x="1039" 
d="M519 109q121 0 187 49q70 53 70 155q0 95 -72 146q-68 50 -184 50q-119 0 -185 -47q-71 -51 -71 -149q0 -101 76 -155q68 -49 179 -49zM519 638q220 0 355 -81q145 -87 145 -244q0 -324 -499 -324q-500 0 -500 324q0 157 145 244q135 81 354 81zM610 721l-167 -49l-23 76
l179 70z" />
    <glyph glyph-name="Ocircumflex" unicode="&#xd4;" horiz-adv-x="1039" 
d="M519 109q121 0 187 49q70 53 70 155q0 95 -72 146q-68 50 -184 50q-119 0 -185 -47q-71 -51 -71 -149q0 -101 76 -155q68 -49 179 -49zM519 638q220 0 355 -81q145 -87 145 -244q0 -324 -499 -324q-500 0 -500 324q0 157 145 244q135 81 354 81zM359 672l-23 76l179 70
l183 -70l-23 -76l-160 62z" />
    <glyph glyph-name="Otilde" unicode="&#xd5;" horiz-adv-x="1039" 
d="M519 109q121 0 187 49q70 53 70 155q0 95 -72 146q-68 50 -184 50q-119 0 -185 -47q-71 -51 -71 -149q0 -101 76 -155q68 -49 179 -49zM519 638q220 0 355 -81q145 -87 145 -244q0 -324 -499 -324q-500 0 -500 324q0 157 145 244q135 81 354 81zM279 740q54 58 130 58
q38 0 100.5 -35.5t89.5 -35.5q52 0 63 5q14 14 29 27l35 -52q-51 -55 -133 -55q-48 0 -109.5 35.5t-95.5 35.5q-30 0 -41 -7q-4 -3 -31 -30z" />
    <glyph glyph-name="Odieresis" unicode="&#xd6;" horiz-adv-x="1039" 
d="M519 109q121 0 187 49q70 53 70 155q0 95 -72 146q-68 50 -184 50q-119 0 -185 -47q-71 -51 -71 -149q0 -101 76 -155q68 -49 179 -49zM519 638q220 0 355 -81q145 -87 145 -244q0 -324 -499 -324q-500 0 -500 324q0 157 145 244q135 81 354 81z" />
    <glyph glyph-name="multiply" unicode="&#xd7;" horiz-adv-x="603" 
d="M141 472l110 -80l108 80l100 -74l-108 -80l110 -81l-101 -74l-110 81l-110 -81l-100 74l110 81l-110 80z" />
    <glyph glyph-name="Oslash" unicode="&#xd8;" horiz-adv-x="987" 
d="M499 406l145 -282h-48v-124h371v124h-79l-283 501h-149l-310 -501h-126v-124h371v124h-60z" />
    <glyph glyph-name="Ugrave" unicode="&#xd9;" 
d="M963 504h-108v-308q0 -84 -71 -143q-90 -73 -266 -73q-182 0 -285 73q-89 62 -89 143v308h-104v115h419v-115h-108v-284q0 -109 169 -109q88 0 121 14q55 23 55 96v283h-104v115h371v-115zM424 721l167 -49l23 76l-179 70z" />
    <glyph glyph-name="Uacute" unicode="&#xda;" 
d="M963 504h-108v-308q0 -84 -71 -143q-90 -73 -266 -73q-182 0 -285 73q-89 62 -89 143v308h-104v115h419v-115h-108v-284q0 -109 169 -109q88 0 121 14q55 23 55 96v283h-104v115h371v-115zM610 721l-167 -49l-23 76l179 70z" />
    <glyph glyph-name="Ucircumflex" unicode="&#xdb;" 
d="M963 504h-108v-308q0 -84 -71 -143q-90 -73 -266 -73q-182 0 -285 73q-89 62 -89 143v308h-104v115h419v-115h-108v-284q0 -109 169 -109q88 0 121 14q55 23 55 96v283h-104v115h371v-115zM379 672l-23 76l179 70l183 -70l-23 -76l-160 62z" />
    <glyph glyph-name="Udieresis" unicode="&#xdc;" 
d="M963 504h-108v-308q0 -84 -71 -143q-90 -73 -266 -73q-182 0 -285 73q-89 62 -89 143v308h-104v115h419v-115h-108v-284q0 -109 169 -109q88 0 121 14q55 23 55 96v283h-104v115h371v-115zM363 718q0 20 21 35t50 15t50 -15t21 -35q0 -21 -21 -36t-50 -15t-50 15t-21 36z
M563 718q0 20 21 35t50 15t50 -15t21 -35q0 -21 -21 -36t-50 -15t-50 15t-21 36z" />
    <glyph glyph-name="Yacute" unicode="&#xdd;" horiz-adv-x="967" 
d="M693 124v-124h-419v124h104v100l-286 279h-82v115h371v-115h-34l154 -153l144 153h-59v115h371v-115h-122l-250 -268v-111h108zM610 721l-167 -49l-23 76l179 70z" />
    <glyph glyph-name="Thorn" unicode="&#xde;" horiz-adv-x="2001" 
d="M40 619h882v-240h-138v125h-200v-380h132v-124h-467v124h129v380h-200v-125h-138v240zM1301 375h345v129h-104v115h419v-115h-108v-380h108v-124h-419v124h104v136h-345v-136h108v-124h-419v124h104v380h-104v115h419v-115h-108v-129z" />
    <glyph glyph-name="germandbls" unicode="&#xdf;" horiz-adv-x="1642" 
d="M1234 -22q-151 0 -236 45v-27h-138v251h138v-36q0 -56 87 -83q66 -20 166 -20q54 0 94 13q50 16 50 45q0 37 -58 48q-55 5 -179 19q-100 13 -168 47q-112 56 -112 156q0 114 113 170q87 42 215 42q67 0 142 -21q71 -19 109 -46v49h138v-241h-138v36q0 44 -79 71
q-66 22 -148 22q-79 0 -107 -9q-40 -12 -40 -52q0 -15 23 -24q12 -5 53 -12q94 -12 188 -23q118 -17 176 -56q79 -54 79 -162q0 -95 -90 -147q-94 -55 -278 -55zM414 -22q-151 0 -236 45v-27h-138v251h138v-36q0 -56 87 -83q66 -20 166 -20q54 0 94 13q50 16 50 45
q0 37 -58 48q-55 5 -179 19q-100 13 -168 47q-112 56 -112 156q0 114 113 170q87 42 215 42q67 0 142 -21q71 -19 109 -46v49h138v-241h-138v36q0 44 -79 71q-66 22 -148 22q-79 0 -107 -9q-40 -12 -40 -52q0 -15 23 -24q12 -5 53 -12q94 -12 188 -23q118 -17 176 -56
q79 -54 79 -162q0 -95 -90 -147q-94 -55 -278 -55z" />
    <glyph glyph-name="agrave" unicode="&#xe0;" horiz-adv-x="987" 
d="M603 281l-64 125l-75 -125h139zM396 167l-25 -43h60v-124h-371v124h126l310 501h149l283 -501h79v-124h-371v124h48l-22 43h-266zM484 721l167 -49l23 76l-179 70z" />
    <glyph glyph-name="aacute" unicode="&#xe1;" horiz-adv-x="987" 
d="M603 281l-64 125l-75 -125h139zM396 167l-25 -43h60v-124h-371v124h126l310 501h149l283 -501h79v-124h-371v124h48l-22 43h-266zM670 721l-167 -49l-23 76l179 70z" />
    <glyph glyph-name="acircumflex" unicode="&#xe2;" horiz-adv-x="987" 
d="M603 281l-64 125l-75 -125h139zM396 167l-25 -43h60v-124h-371v124h126l310 501h149l283 -501h79v-124h-371v124h48l-22 43h-266zM409 672l-23 76l179 70l183 -70l-23 -76l-160 62z" />
    <glyph glyph-name="atilde" unicode="&#xe3;" horiz-adv-x="987" 
d="M603 281l-64 125l-75 -125h139zM396 167l-25 -43h60v-124h-371v124h126l310 501h149l283 -501h79v-124h-371v124h48l-22 43h-266zM339 740q54 58 130 58q38 0 100.5 -35.5t89.5 -35.5q52 0 63 5q14 14 29 27l35 -52q-51 -55 -133 -55q-48 0 -109.5 35.5t-95.5 35.5
q-30 0 -41 -7q-4 -3 -31 -30z" />
    <glyph glyph-name="adieresis" unicode="&#xe4;" horiz-adv-x="987" 
d="M603 281l-64 125l-75 -125h139zM396 167l-25 -43h60v-124h-371v124h126l310 501h149l283 -501h79v-124h-371v124h48l-22 43h-266zM393 718q0 20 21 35t50 15t50 -15t21 -35q0 -21 -21 -36t-50 -15t-50 15t-21 36zM593 718q0 20 21 35t50 15t50 -15t21 -35q0 -21 -21 -36
t-50 -15t-50 15t-21 36z" />
    <glyph glyph-name="aring" unicode="&#xe5;" horiz-adv-x="987" 
d="M603 281l-64 125l-75 -125h139zM396 167l-25 -43h60v-124h-371v124h126l310 501h149l283 -501h79v-124h-371v124h48l-22 43h-266z" />
    <glyph glyph-name="ae" unicode="&#xe6;" horiz-adv-x="1051" 
d="M351 255l345 249h-104v115h419v-115h-108v-380h108v-124h-419v124h104v256l-345 -256h108v-124h-419v124h104v380h-104v115h419v-115h-108v-249z" />
    <glyph glyph-name="ccedilla" unicode="&#xe7;" horiz-adv-x="944" 
d="M20 313q0 157 145 244q135 81 354 81q144 0 260 -72v54h139v-297h-139v36q0 62 -77 106t-182 44q-119 0 -185 -47q-71 -51 -71 -149q0 -101 76 -155q68 -49 179 -49q204 0 260 138h145q0 -95 -86 -167q-109 -91 -318 -91q-500 0 -500 324zM517 48v-92q32 20 75 20
q56 0 97 -20q53 -25 53 -76q0 -46 -48 -70q-43 -21 -112 -21q-54 0 -92 17q-52 24 -52 73h90q0 -39 56 -39q63 0 63 35q0 25 -9 35q-13 15 -55 15q-37 0 -63 -30h-66v153h63z" />
    <glyph glyph-name="egrave" unicode="&#xe8;" horiz-adv-x="861" 
d="M683 241h138v-241h-89h-692v124h104v380h-104v115h781v-240h-138v125h-332v-129h228v-115h-228v-136h332v117zM354 721l167 -49l23 76l-179 70z" />
    <glyph glyph-name="eacute" unicode="&#xe9;" horiz-adv-x="861" 
d="M683 241h138v-241h-89h-692v124h104v380h-104v115h781v-240h-138v125h-332v-129h228v-115h-228v-136h332v117zM550 721l-167 -49l-23 76l179 70z" />
    <glyph glyph-name="ecircumflex" unicode="&#xea;" horiz-adv-x="861" 
d="M683 241h138v-241h-89h-692v124h104v380h-104v115h781v-240h-138v125h-332v-129h228v-115h-228v-136h332v117zM299 672l-23 76l179 70l183 -70l-23 -76l-160 62z" />
    <glyph glyph-name="edieresis" unicode="&#xeb;" horiz-adv-x="861" 
d="M683 241h138v-241h-89h-692v124h104v380h-104v115h781v-240h-138v125h-332v-129h228v-115h-228v-136h332v117zM313 718q0 20 21 35t50 15t50 -15t21 -35q0 -21 -21 -36t-50 -15t-50 15t-21 36zM513 718q0 20 21 35t50 15t50 -15t21 -35q0 -21 -21 -36t-50 -15t-50 15
t-21 36z" />
    <glyph glyph-name="igrave" unicode="&#xec;" horiz-adv-x="499" 
d="M351 124h108v-124h-419v124h104v380h-104v115h419v-115h-108v-380zM174 721l167 -49l23 76l-179 70z" />
    <glyph glyph-name="iacute" unicode="&#xed;" horiz-adv-x="499" 
d="M351 124h108v-124h-419v124h104v380h-104v115h419v-115h-108v-380zM330 721l-167 -49l-23 76l179 70z" />
    <glyph glyph-name="icircumflex" unicode="&#xee;" horiz-adv-x="499" 
d="M351 124h108v-124h-419v124h104v380h-104v115h419v-115h-108v-380zM99 672l-23 76l179 70l183 -70l-23 -76l-160 62z" />
    <glyph glyph-name="idieresis" unicode="&#xef;" horiz-adv-x="499" 
d="M351 124h108v-124h-419v124h104v380h-104v115h419v-115h-108v-380zM83 718q0 20 21 35t50 15t50 -15t21 -35q0 -21 -21 -36t-50 -15t-50 15t-21 36zM283 718q0 20 21 35t50 15t50 -15t21 -35q0 -21 -21 -36t-50 -15t-50 15t-21 36z" />
    <glyph glyph-name="eth" unicode="&#xf0;" horiz-adv-x="956" 
d="M351 125h153q108 0 150 46q38 42 38 144q0 99 -44 142q-46 47 -156 47h-141v-379zM144 504h-104v115h448q198 0 308 -71q120 -78 120 -233q0 -157 -113 -237q-108 -77 -303 -77h-460v124h104v379zM44 277v81h424v-81h-424z" />
    <glyph glyph-name="ntilde" unicode="&#xf1;" 
d="M724 0l-13 12l-408 366v-254h108v-124h-371v124h104v380h-104v115h282l21 -6l353 -319v210h-104v115h371v-115h-108v-504h-131zM279 740q54 58 130 58q38 0 100.5 -35.5t89.5 -35.5q52 0 63 5q14 14 29 27l35 -52q-51 -55 -133 -55q-48 0 -109.5 35.5t-95.5 35.5
q-30 0 -41 -7q-4 -3 -31 -30z" />
    <glyph glyph-name="ograve" unicode="&#xf2;" horiz-adv-x="1039" 
d="M519 109q121 0 187 49q70 53 70 155q0 95 -72 146q-68 50 -184 50q-119 0 -185 -47q-71 -51 -71 -149q0 -101 76 -155q68 -49 179 -49zM519 638q220 0 355 -81q145 -87 145 -244q0 -324 -499 -324q-500 0 -500 324q0 157 145 244q135 81 354 81zM424 721l167 -49l23 76
l-179 70z" />
    <glyph glyph-name="oacute" unicode="&#xf3;" horiz-adv-x="1039" 
d="M519 109q121 0 187 49q70 53 70 155q0 95 -72 146q-68 50 -184 50q-119 0 -185 -47q-71 -51 -71 -149q0 -101 76 -155q68 -49 179 -49zM519 638q220 0 355 -81q145 -87 145 -244q0 -324 -499 -324q-500 0 -500 324q0 157 145 244q135 81 354 81zM610 721l-167 -49l-23 76
l179 70z" />
    <glyph glyph-name="ocircumflex" unicode="&#xf4;" horiz-adv-x="1039" 
d="M519 109q121 0 187 49q70 53 70 155q0 95 -72 146q-68 50 -184 50q-119 0 -185 -47q-71 -51 -71 -149q0 -101 76 -155q68 -49 179 -49zM519 638q220 0 355 -81q145 -87 145 -244q0 -324 -499 -324q-500 0 -500 324q0 157 145 244q135 81 354 81zM349 672l-23 76l179 70
l183 -70l-23 -76l-160 62z" />
    <glyph glyph-name="otilde" unicode="&#xf5;" horiz-adv-x="1039" 
d="M519 109q121 0 187 49q70 53 70 155q0 95 -72 146q-68 50 -184 50q-119 0 -185 -47q-71 -51 -71 -149q0 -101 76 -155q68 -49 179 -49zM519 638q220 0 355 -81q145 -87 145 -244q0 -324 -499 -324q-500 0 -500 324q0 157 145 244q135 81 354 81zM319 740q54 58 130 58
q38 0 100.5 -35.5t89.5 -35.5q52 0 63 5q14 14 29 27l35 -52q-51 -55 -133 -55q-48 0 -109.5 35.5t-95.5 35.5q-30 0 -41 -7q-4 -3 -31 -30z" />
    <glyph glyph-name="odieresis" unicode="&#xf6;" horiz-adv-x="1039" 
d="M519 109q121 0 187 49q70 53 70 155q0 95 -72 146q-68 50 -184 50q-119 0 -185 -47q-71 -51 -71 -149q0 -101 76 -155q68 -49 179 -49zM519 638q220 0 355 -81q145 -87 145 -244q0 -324 -499 -324q-500 0 -500 324q0 157 145 244q135 81 354 81zM343 718q0 20 21 35
t50 15t50 -15t21 -35q0 -21 -21 -36t-50 -15t-50 15t-21 36zM543 718q0 20 21 35t50 15t50 -15t21 -35q0 -21 -21 -36t-50 -15t-50 15t-21 36z" />
    <glyph glyph-name="divide" unicode="&#xf7;" horiz-adv-x="600" 
d="M524 263h-448v110h448v-110zM301 552q39 0 68 -23t29 -56t-29 -54.5t-68 -21.5t-68.5 21.5t-29.5 54.5t29.5 56t68.5 23zM301 245q39 0 68 -23t29 -57q0 -33 -29 -54t-68 -21t-68.5 21t-29.5 54q0 34 29.5 57t68.5 23z" />
    <glyph glyph-name="oslash" unicode="&#xf8;" horiz-adv-x="873" 
d="M424 124v-124h419v124h-104v379h83v115h-361v-115h71v-159h-91q-61 1 -104 37q-45 40 -45 103q0 9 1 19h78v115h-341v-115h92q-4 -260 310 -263q18 -1 100 -1v-115h-108z" />
    <glyph glyph-name="ugrave" unicode="&#xf9;" 
d="M963 504h-108v-308q0 -84 -71 -143q-90 -73 -266 -73q-182 0 -285 73q-89 62 -89 143v308h-104v115h419v-115h-108v-284q0 -109 169 -109q88 0 121 14q55 23 55 96v283h-104v115h371v-115zM424 721l167 -49l23 76l-179 70z" />
    <glyph glyph-name="uacute" unicode="&#xfa;" 
d="M963 504h-108v-308q0 -84 -71 -143q-90 -73 -266 -73q-182 0 -285 73q-89 62 -89 143v308h-104v115h419v-115h-108v-284q0 -109 169 -109q88 0 121 14q55 23 55 96v283h-104v115h371v-115zM610 721l-167 -49l-23 76l179 70z" />
    <glyph glyph-name="ucircumflex" unicode="&#xfb;" 
d="M963 504h-108v-308q0 -84 -71 -143q-90 -73 -266 -73q-182 0 -285 73q-89 62 -89 143v308h-104v115h419v-115h-108v-284q0 -109 169 -109q88 0 121 14q55 23 55 96v283h-104v115h371v-115zM359 672l-23 76l179 70l183 -70l-23 -76l-160 62z" />
    <glyph glyph-name="udieresis" unicode="&#xfc;" 
d="M963 504h-108v-308q0 -84 -71 -143q-90 -73 -266 -73q-182 0 -285 73q-89 62 -89 143v308h-104v115h419v-115h-108v-284q0 -109 169 -109q88 0 121 14q55 23 55 96v283h-104v115h371v-115zM363 718q0 20 21 35t50 15t50 -15t21 -35q0 -21 -21 -36t-50 -15t-50 15t-21 36z
M563 718q0 20 21 35t50 15t50 -15t21 -35q0 -21 -21 -36t-50 -15t-50 15t-21 36z" />
    <glyph glyph-name="yacute" unicode="&#xfd;" horiz-adv-x="967" 
d="M693 124v-124h-419v124h104v100l-286 279h-82v115h371v-115h-34l154 -153l144 153h-59v115h371v-115h-122l-250 -268v-111h108zM610 721l-167 -49l-23 76l179 70z" />
    <glyph glyph-name="thorn" unicode="&#xfe;" horiz-adv-x="2001" 
d="M40 619h882v-240h-138v125h-200v-380h132v-124h-467v124h129v380h-200v-125h-138v240zM1301 375h345v129h-104v115h419v-115h-108v-380h108v-124h-419v124h104v136h-345v-136h108v-124h-419v124h104v380h-104v115h419v-115h-108v-129z" />
    <glyph glyph-name="ydieresis" unicode="&#xff;" horiz-adv-x="967" 
d="M693 124v-124h-419v124h104v100l-286 279h-82v115h371v-115h-34l154 -153l144 153h-59v115h371v-115h-122l-250 -268v-111h108zM313 718q0 20 21 35t50 15t50 -15t21 -35q0 -21 -21 -36t-50 -15t-50 15t-21 36zM513 718q0 20 21 35t50 15t50 -15t21 -35q0 -21 -21 -36
t-50 -15t-50 15t-21 36z" />
    <glyph glyph-name="dotlessi" unicode="&#x131;" horiz-adv-x="499" 
d="M351 124h108v-124h-419v124h104v380h-104v115h419v-115h-108v-380z" />
    <glyph glyph-name="Lslash" unicode="&#x141;" horiz-adv-x="861" 
d="M683 241h138v-241h-781v124h104v380h-104v115h419v-115h-108v-380h332v117z" />
    <glyph glyph-name="lslash" unicode="&#x142;" horiz-adv-x="861" 
d="M683 241h138v-241h-781v124h104v380h-104v115h419v-115h-108v-380h332v117z" />
    <glyph glyph-name="OE" unicode="&#x152;" horiz-adv-x="923" 
d="M40 144v-66q0 -51 62 -78q47 -20 106 -20q104 0 150 26q62 35 62 131q0 75 33 104q26 23 89 23h49v-140h-112v-124h419v124h-100v380h104v115l-482 1q-131 0 -194 -23q-104 -37 -104 -144q0 -145 192 -178l-68 -28q-46 -27 -46 -79q0 -43 -7 -62q-12 -30 -46 -30
q-42 0 -40 68h-67zM591 504v-135h-93q-106 0 -137 14q-27 12 -27 54t27 56q17 9 66 11q51 2 164 0z" />
    <glyph glyph-name="oe" unicode="&#x153;" horiz-adv-x="920" 
d="M880 192q0 -118 -122 -162q-84 -30 -258 -30h-460v124h104v380h-104v115h812v-220h-138v105h-363v-121h137h18.5h20.5q183 0 248 -28q105 -45 105 -163zM656 192q0 58 -58 72q-18 5 -106 5h-141v-145h153q93 0 124 15q28 14 28 53z" />
    <glyph glyph-name="Scaron" unicode="&#x160;" horiz-adv-x="822" 
d="M414 -22q-151 0 -236 45v-27h-138v251h138v-36q0 -56 87 -83q66 -20 166 -20q54 0 94 13q50 16 50 45q0 37 -58 48q-55 5 -179 19q-100 13 -168 47q-112 56 -112 156q0 114 113 170q87 42 215 42q67 0 142 -21q71 -19 109 -46v49h138v-241h-138v36q0 44 -79 71
q-66 22 -148 22q-79 0 -107 -9q-40 -12 -40 -52q0 -15 23 -24q12 -5 53 -12q94 -12 188 -23q118 -17 176 -56q79 -54 79 -162q0 -95 -90 -147q-94 -55 -278 -55zM279 818l-13 -76l189 -70l193 70l-13 76l-180 -62z" />
    <glyph glyph-name="scaron" unicode="&#x161;" horiz-adv-x="822" 
d="M414 -22q-151 0 -236 45v-27h-138v251h138v-36q0 -56 87 -83q66 -20 166 -20q54 0 94 13q50 16 50 45q0 37 -58 48q-55 5 -179 19q-100 13 -168 47q-112 56 -112 156q0 114 113 170q87 42 215 42q67 0 142 -21q71 -19 109 -46v49h138v-241h-138v36q0 44 -79 71
q-66 22 -148 22q-79 0 -107 -9q-40 -12 -40 -52q0 -15 23 -24q12 -5 53 -12q94 -12 188 -23q118 -17 176 -56q79 -54 79 -162q0 -95 -90 -147q-94 -55 -278 -55zM279 818l-13 -76l189 -70l193 70l-13 76l-180 -62z" />
    <glyph glyph-name="Ydieresis" unicode="&#x178;" horiz-adv-x="967" 
d="M693 124v-124h-419v124h104v100l-286 279h-82v115h371v-115h-34l154 -153l144 153h-59v115h371v-115h-122l-250 -268v-111h108zM313 718q0 20 21 35t50 15t50 -15t21 -35q0 -21 -21 -36t-50 -15t-50 15t-21 36zM513 718q0 20 21 35t50 15t50 -15t21 -35q0 -21 -21 -36
t-50 -15t-50 15t-21 36z" />
    <glyph glyph-name="Zcaron" unicode="&#x17d;" horiz-adv-x="921" 
d="M40 0v114l520 390h-355v-125h-138v240h781v-104l-487 -391h382v117h138v-241h-841zM279 818l-13 -76l189 -70l193 70l-13 76l-180 -62z" />
    <glyph glyph-name="zcaron" unicode="&#x17e;" horiz-adv-x="921" 
d="M40 0v114l520 390h-355v-125h-138v240h781v-104l-487 -391h382v117h138v-241h-841zM279 818l-13 -76l189 -70l193 70l-13 76l-180 -62z" />
    <glyph glyph-name="circumflex" unicode="&#x2c6;" 
d="M299 672l-23 76l179 70l183 -70l-23 -76l-160 62z" />
    <glyph glyph-name="caron" unicode="&#x2c7;" 
d="M279 818l-13 -76l189 -70l193 70l-13 76l-180 -62z" />
    <glyph glyph-name="breve" unicode="&#x2d8;" 
d="M311 773h57q0 -29 26.5 -49t68.5 -20t68 20t26 49h57q1 -61 -40 -101t-112 -40t-111.5 40t-39.5 101z" />
    <glyph glyph-name="tilde" unicode="&#x2dc;" 
d="M279 740q54 58 130 58q38 0 100.5 -35.5t89.5 -35.5q52 0 63 5q14 14 29 27l35 -52q-51 -55 -133 -55q-48 0 -109.5 35.5t-95.5 35.5q-30 0 -41 -7q-4 -3 -31 -30z" />
    <glyph glyph-name="pi" unicode="&#x3c0;" horiz-adv-x="1051" 
d="M696 504h-345v-380h108v-124h-419v124h104v380h-104v115h971v-115h-108v-380h108v-124h-419v124h104v380z" />
    <glyph glyph-name="endash" unicode="&#x2013;" horiz-adv-x="500" 
d="M474 277h-448v81h448v-81z" />
    <glyph glyph-name="emdash" unicode="&#x2014;" horiz-adv-x="1000" 
d="M6 277v81h988v-81h-988z" />
    <glyph glyph-name="quoteleft" unicode="&#x2018;" horiz-adv-x="419" 
d="M242 597q49 -7 81.5 -35t32.5 -68q0 -46 -41.5 -78.5t-98.5 -32.5q-58 0 -104 31q-49 34 -49 80q1 58 29 98q34 47 141 102l72 -67q-25 -12 -63 -30z" />
    <glyph glyph-name="quoteright" unicode="&#x2019;" horiz-adv-x="419" 
d="M177 475q-49 7 -80 34q-34 29 -34 69q0 46 42 78.5t99 32.5t103 -31q50 -34 49 -80q0 -58 -29 -98q-34 -47 -141 -102l-72 67q25 12 63 30z" />
    <glyph glyph-name="quotesinglbase" unicode="&#x201a;" horiz-adv-x="419" 
d="M177 -25q-49 7 -80 34q-34 29 -34 69q0 46 42 78.5t99 32.5t103 -31q50 -34 49 -80q0 -58 -29 -98q-34 -47 -141 -102l-72 67q25 12 63 30z" />
    <glyph glyph-name="quotedblleft" unicode="&#x201c;" horiz-adv-x="740" 
d="M565 597q49 -7 81.5 -35t32.5 -68q0 -46 -41.5 -78.5t-98.5 -32.5q-58 0 -104 31q-50 34 -49 80q1 58 29 98q34 47 141 102l72 -67q-25 -12 -63 -30zM241 597q49 -7 81.5 -35t32.5 -68q0 -46 -41.5 -78.5t-98.5 -32.5q-58 0 -104 31q-49 34 -49 80q1 58 29 98
q34 47 141 102l72 -67q-25 -12 -63 -30z" />
    <glyph glyph-name="quotedblright" unicode="&#x201d;" horiz-adv-x="740" 
d="M175 475q-49 7 -80 34q-34 29 -34 69q0 46 42 78.5t99 32.5t103 -31q50 -34 49 -80q0 -58 -29 -98q-34 -47 -141 -102l-72 67q25 12 63 30zM499 475q-49 7 -80 34q-34 29 -34 69q0 46 42 78.5t99 32.5t103 -31q50 -34 49 -80q0 -58 -29 -98q-34 -47 -141 -102l-72 67
q25 12 63 30z" />
    <glyph glyph-name="quotedblbase" unicode="&#x201e;" horiz-adv-x="740" 
d="M175 -25q-49 7 -80 34q-34 29 -34 69q0 46 42 78.5t99 32.5t103 -31q50 -34 49 -80q0 -58 -29 -98q-34 -47 -141 -102l-72 67q25 12 63 30zM499 -25q-49 7 -80 34q-34 29 -34 69q0 46 42 78.5t99 32.5t103 -31q50 -34 49 -80q0 -58 -29 -98q-34 -47 -141 -102l-72 67
q25 12 63 30z" />
    <glyph glyph-name="bullet" unicode="&#x2022;" horiz-adv-x="414" 
d="M67 412q94 22 119 87h45q9 -37 36 -55t80 -27v-36q-94 -21 -119 -87h-44q-9 37 -36.5 55t-80.5 28v35z" />
    <glyph glyph-name="ellipsis" unicode="&#x2026;" horiz-adv-x="1060" 
d="M859 189q57 0 99 -30.5t42 -74.5q0 -43 -42 -71t-99 -28t-97 27q-43 29 -43 72q0 44 41.5 74.5t98.5 30.5zM529 189q57 0 99 -30.5t42 -74.5q0 -43 -42 -71t-99 -28t-98.5 28t-41.5 71q0 44 41.5 74.5t98.5 30.5zM201 189q57 0 98.5 -30.5t41.5 -74.5q0 -43 -41.5 -71
t-98.5 -28t-99 28t-42 71q0 44 42 74.5t99 30.5z" />
    <glyph glyph-name="perthousand" unicode="&#x2030;" horiz-adv-x="1760" 
d="M265 324q35 0 56 29q18 26 18 63q0 113 -74 113q-43 0 -63 -37q-17 -30 -17 -76q0 -37 22 -64.5t58 -27.5zM264 237q-90 0 -155 50q-69 53 -69 135t70 137q66 51 154 51t153 -52q67 -55 67 -136q0 -86 -68 -137q-62 -48 -152 -48zM918 54q41 0 64 33q21 30 21 71
q0 129 -85 129q-47 0 -71 -41q-20 -34 -20 -85q0 -42 23 -73q26 -34 68 -34zM918 -37q-100 0 -171 54q-76 58 -76 149q0 90 77 150q73 56 170 56q96 0 167 -57q75 -60 75 -149q0 -95 -75 -152q-68 -51 -167 -51zM709 639h210l-502 -715h-210zM1478 54q41 0 64 33
q21 30 21 71q0 129 -85 129q-48 0 -72 -42q-19 -34 -19 -86q0 -42 24 -72q26 -33 67 -33zM1478 -37q-100 0 -171 54q-76 58 -76 149q0 90 77 150q73 56 170 56q96 0 167 -57q75 -60 75 -149q0 -95 -75 -152q-68 -51 -167 -51z" />
    <glyph glyph-name="guilsinglleft" unicode="&#x2039;" horiz-adv-x="552" 
d="M403 -22l-373 252l373 251l119 -52l-257 -200l257 -200z" />
    <glyph glyph-name="guilsinglright" unicode="&#x203a;" horiz-adv-x="552" 
d="M149 -22l373 252l-373 251l-119 -52l257 -200l-257 -200z" />
    <glyph glyph-name="fraction" unicode="&#x2044;" horiz-adv-x="527" 
d="M587 529l-89 89l-558 -558l89 -89z" />
    <glyph glyph-name="trademark" unicode="&#x2122;" horiz-adv-x="930" 
d="M50 629h353v-96h-55v50h-80v-152h53v-50h-187v50h51v152h-80v-50h-55v96zM648 382h-17l-109 130v-81h58v-50h-163v50h41v152h-41v46h103l9 -2l117 -136l117 136l9 2h108v-46h-42v-152h42v-50h-168v50h44v81z" />
    <glyph glyph-name="partialdiff" unicode="&#x2202;" horiz-adv-x="956" 
d="M351 125h153q108 0 150 46q38 42 38 144q0 99 -44 142q-46 47 -156 47h-141v-379zM144 504h-104v115h448q198 0 308 -71q120 -78 120 -233q0 -157 -113 -237q-108 -77 -303 -77h-460v124h104v379z" />
    <glyph glyph-name="product" unicode="&#x220f;" horiz-adv-x="1051" 
d="M696 504h-345v-380h108v-124h-419v124h104v380h-104v115h971v-115h-108v-380h108v-124h-419v124h104v380z" />
    <glyph glyph-name="summation" unicode="&#x2211;" horiz-adv-x="921" 
d="M67 515v104h801v-240h-138v125h-375l287 -177l-281 -203h382v117h138v-241h-841v114l356 212z" />
    <glyph glyph-name="approxequal" unicode="&#x2248;" horiz-adv-x="530" 
d="M42 440q54 58 130 58q38 0 100.5 -35.5t89.5 -35.5q52 0 63 5q14 14 29 27l35 -52q-51 -55 -133 -55q-48 0 -109.5 35.5t-95.5 35.5q-30 0 -41 -7q-4 -3 -31 -30zM42 240q54 58 130 58q38 0 100.5 -35.5t89.5 -35.5q52 0 63 5q14 14 29 27l35 -52q-51 -55 -133 -55
q-48 0 -109.5 35.5t-95.5 35.5q-30 0 -41 -7q-4 -3 -31 -30z" />
    <glyph glyph-name="approxequal" unicode="&#x22f2;" horiz-adv-x="530" 
d="M42 440q54 58 130 58q38 0 100.5 -35.5t89.5 -35.5q52 0 63 5q14 14 29 27l35 -52q-51 -55 -133 -55q-48 0 -109.5 35.5t-95.5 35.5q-30 0 -41 -7q-4 -3 -31 -30zM42 240q54 58 130 58q38 0 100.5 -35.5t89.5 -35.5q52 0 63 5q14 14 29 27l35 -52q-51 -55 -133 -55
q-48 0 -109.5 35.5t-95.5 35.5q-30 0 -41 -7q-4 -3 -31 -30z" />
    <glyph glyph-name="notequal" unicode="&#x2260;" horiz-adv-x="604" 
d="M325 489h109l-38 -131h118v-106h-147l-20 -69h167v-106h-197l-50 -177h-109l50 177h-118v106h148l20 69h-168v106h198z" />
    <glyph glyph-name="lessequal" unicode="&#x2264;" horiz-adv-x="552" 
d="M403 -22l-373 292l373 291l119 -92l-257 -200l257 -200zM528 -143h-448v81h448v-81z" />
    <glyph glyph-name="greaterequal" unicode="&#x2265;" horiz-adv-x="552" 
d="M155 -22l373 292l-373 291l-119 -92l257 -200l-257 -200zM30 -143h448v81h-448v-81z" />
    <glyph glyph-name="apple" unicode="&#xf000;" horiz-adv-x="1630" 
d="M1520 356v5q0 11 -16 20q-19 12 -47 12q-67 0 -67 -46q0 -49 66 -48h7v57h57zM1084 598l21 -19v19h-21zM1181 451q94 -8 114 -71q14 40 64 60h-12q-164 0 -164 111q0 26 12 47h-14v-147zM1048 452h67l-1 2l-99 88v-32h33v-58zM765 597l-23 1v-18zM1189 180l21 -19v19h-21
zM1019 391v-37h-70v37h-71v-12h68v-61h-68v-15h71v36h70v-35h20v87h-20zM767 452h34l-34 32v-32zM555 543h-2v24q0 11 -18 21.5t-46 10.5q-63 0 -63 -45q0 -48 63 -48q50 0 66 37zM1024 180v-38h-70v38h-71v-13h68v-61h-68v-14h71v35h70v-35h21v88h-21zM639 446v-55h-32v-88
h89v36h70v-36h21v88h-31v55h-117zM552 452h68v58h32v88h-30v-51h2q0 -71 -72 -95zM746 180v-88h47v88h-47zM526 92l-17 26l-1 -26h18zM638 92h18v26zM354 452h56q-35 9 -56 29v-29zM344 446v-55h-25l22 -42l21 42h-13v55h-5zM178 391h-6l25 -45l23 39l-4 6h-29v61h28v44h-37
v-105zM405 180v-37h-70v37h-71v-12h68v-61h-68v-15h71v35h70v-35h28v88h-28zM485 303h32v88h-70l-84 -150h122v62zM508 237l80 -92l79 92l17 5h-189zM1126 237l53 -48v52h238q-103 10 -123 72q-22 -71 -134 -71h-60zM219 241h86l-45 76zM1527 251q-13 -6 -42 -10h51z
M1591 142h-70v38h-32v-88h40v-64h-168v64h38v88h-32v-38h-69v38h-12v-152h-59l-107 96v-32h33v-64h-530v33l-27 -33h-27l-17 22v-22h-410v64h32v88h-32v61h19l-92 150h-30v119h47l92 145l55 15l92 -160h8q-8 19 -8 44q0 54 50 84q44 26 114 26q32 0 64 -13v8h214v-43h12v43
h111v-61h-42l-45 -40l57 -48h45v-58h3v58h32v88h-32v61h101l11 -3l54 -49v52h139v-39q45 41 134 41q70 0 114 -26q50 -30 50 -84q0 -67 -60 -93h5q32 0 64 -13v7h71v-310zM1410 551q0 45 -63 45t-63 -45q0 -48 63 -48t63 48zM1204 348q0 25 -10.5 34t-35.5 9h-28v-87h31
q26 0 34.5 9t8.5 35zM210 556l-18 37l-22 -37h40z" />
    <glyph glyph-name="fi" unicode="&#xf001;" horiz-adv-x="1359" 
d="M683 504h-332v-129h228v-115h-228v-136h108v-124h-419v124h104v380h-104v115h781v-240h-138v125zM1211 124h108v-124h-419v124h104v380h-104v115h419v-115h-108v-380z" />
    <glyph glyph-name="fl" unicode="&#xf002;" horiz-adv-x="1721" 
d="M683 504h-332v-129h228v-115h-228v-136h108v-124h-419v124h104v380h-104v115h781v-240h-138v125zM1543 241h138v-241h-781v124h104v380h-104v115h419v-115h-108v-380h332v117z" />
    <glyph glyph-name=".null" horiz-adv-x="32767" 
 />
    </font>
</defs>
</svg>
